<svg width="77px" height="73px" viewBox="0 0 77 73" version="1.1" xmlns="http://www.w3.org/2000/svg" xmlns:xlink="http://www.w3.org/1999/xlink" xmlns:sketch="http://www.bohemiancoding.com/sketch/ns">
    <!-- Generator: Sketch 3.3.3 (12081) - http://www.bohemiancoding.com/sketch -->
    <title>Oval 2 Copy 3</title>
    <desc>Created with Sketch.</desc>
    <defs></defs>
    <g id="Logo" stroke="none" stroke-width="1" fill="none" fill-rule="evenodd" sketch:type="MSPage">
        <path d="M15.3724033,66.0123352 C18.4521744,68.4284189 21.9194855,70.3730059 25.665632,71.7373954 L26.9151833,68.7754896 C28.8454036,64.2001429 34.4468061,60.4910916 39.4054083,60.4910916 L38.1785761,60.4910916 C43.1465166,60.4910916 48.6707681,64.2311499 50.5191092,68.849173 L51.6312547,71.6278342 L51.6312547,71.6278342 C55.5596656,70.1591152 59.1758156,68.0504725 62.3528472,65.428759 L59.6907228,61.9121659 C56.6934665,57.9528728 56.2820351,51.2473902 58.7613362,46.9531148 L58.14792,48.0155826 C60.6318903,43.7132199 66.6330016,40.799107 71.5564975,41.5074082 L75.5854639,42.0870211 L75.5854639,42.0870211 C75.8585026,40.2618306 76,38.3936372 76,36.4923964 C76,34.4250471 75.8326977,32.3967719 75.5108933,30.4203706 L75.5108933,30.4203706 L71.7755395,30.8873801 C66.8480629,31.5034336 60.8352289,28.5070024 58.3559279,24.2127269 L58.969344,25.2751948 C56.4853737,20.9728321 56.9622335,14.3186608 60.0373883,10.4089389 L62.3094429,7.52027073 C59.0629189,4.84934437 55.3596087,2.71343625 51.334368,1.24739751 L51.334368,1.24739751 L50.0848167,4.20930331 C48.1545964,8.78465 42.5531939,12.4937013 37.5945917,12.4937013 L38.8214239,12.4937013 C33.8534834,12.4937013 28.3292319,8.75364299 26.4808908,4.13561989 L25.3687453,1.35695873 C21.4884822,2.80767658 17.9128726,4.88272813 14.7641665,7.45986779 L14.7641665,7.45986779 L17.3092772,10.821889 C20.3065335,14.7811821 20.7179649,21.4866647 18.2386638,25.7809401 L18.85208,24.7184722 C16.3681097,29.0208349 10.3669984,31.9349479 5.44350253,31.2266467 L1.45206941,30.6524334 C1.15447534,32.5554385 1,34.5058783 1,36.4923964 C1,38.4556599 1.15087984,40.3836846 1.4416771,42.2655086 L6.72446051,41.6050331 C11.6519371,40.9889796 17.6647711,43.9854108 20.1440721,48.2796863 L19.530656,47.2172184 C22.0146263,51.5195811 21.5377665,58.1737524 18.4626117,62.0834743 L15.3724033,66.0123352 Z M38.5,48.9919711 C45.4035594,48.9919711 51,43.3957209 51,36.4923964 C51,29.589072 45.4035594,23.9928218 38.5,23.9928218 C31.5964406,23.9928218 26,29.589072 26,36.4923964 C26,43.3957209 31.5964406,48.9919711 38.5,48.9919711 Z" id="Oval-2-Copy-3" stroke="#979797" fill="#417505" sketch:type="MSShapeGroup"></path>
    </g>
</svg>
