<svg width="152px" height="142px" viewBox="0 0 152 142" version="1.1" xmlns="http://www.w3.org/2000/svg" xmlns:xlink="http://www.w3.org/1999/xlink" xmlns:sketch="http://www.bohemiancoding.com/sketch/ns">
    <!-- Generator: Sketch 3.3.3 (12081) - http://www.bohemiancoding.com/sketch -->
    <title>Oval 2 Copy</title>
    <desc>Created with Sketch.</desc>
    <defs></defs>
    <g id="Logo" stroke="none" stroke-width="1" fill="none" fill-rule="evenodd" sketch:type="MSPage">
        <path d="M29.7444272,130.041589 C35.904064,134.874059 42.8388172,138.763469 50.331264,141.492396 L55.5420202,129.140528 C57.9048558,123.53953 64.7493725,118.999023 70.8216317,118.999023 L82.3463371,118.999023 C88.4221979,118.999023 95.181069,123.579904 97.4383584,129.219864 L102.262509,141.273267 L102.262509,141.273267 C110.119465,138.335679 117.351877,134.118157 123.706018,128.874427 L114.170279,116.278297 C110.50109,111.431523 109.991155,103.233744 113.027284,97.9750136 L118.789637,87.994326 C121.827567,82.7324762 129.174162,79.1695626 135.187155,80.0346725 L150.170809,82.1904221 L150.170809,82.1904221 C150.716964,78.5396654 151,74.802886 151,71 C151,66.8648934 150.665352,62.807948 150.021662,58.8547688 L150.021662,58.8547688 L135.628259,60.65447 C129.596234,61.4086934 122.241782,57.7514211 119.205653,52.4926904 L113.4433,42.5120027 C110.405369,37.2501529 110.993093,29.1063584 114.748797,24.3315084 L123.619201,13.0540359 C117.126077,7.71188048 109.719347,3.43982819 101.668736,0.507603557 L101.668736,0.507603557 L96.4579798,12.8594724 C94.0951442,18.4604705 87.2506275,23.0009766 81.1783683,23.0009766 L69.6536629,23.0009766 C63.5778021,23.0009766 56.818931,18.4200956 54.5616416,12.7801358 L49.7374906,0.726733442 C41.9768346,3.62831638 34.8255062,7.77865097 28.5280171,12.9332254 L28.5280171,12.9332254 L37.8297213,25.2202095 C41.4989101,30.0669842 42.0088454,38.2647626 38.9727158,43.5234933 L33.2103631,53.504181 C30.1724327,58.7660308 22.8258379,62.3289444 16.8128447,61.4638344 L1.90426248,59.3188857 C1.30899348,63.1252759 1,67.0265533 1,71 C1,74.9269358 1.30180201,78.783382 1.88347654,82.547409 L19.3717415,80.3607371 C25.4037659,79.6065137 32.7582179,83.263786 35.7943475,88.5225167 L41.5567002,98.5032044 C44.5946306,103.765054 44.0069069,111.908849 40.2512031,116.683699 L29.7444272,130.041589 Z M76,96 C89.8071187,96 101,84.8071187 101,71 C101,57.1928813 89.8071187,46 76,46 C62.1928813,46 51,57.1928813 51,71 C51,84.8071187 62.1928813,96 76,96 Z" id="Oval-2-Copy" stroke="#979797" fill="#7ED321" sketch:type="MSShapeGroup"></path>
    </g>
</svg>
